PathFileType	4	(X/Y/Z)	3_coords_data.trc
DataRate	CameraRate	NumFrames	NumMarkers	Units	OrigDataRate	OrigDataStartFrame	OrigNumFrames
30.0	30.0	8	21	m	30.0	1	78
Frame#	Time	THUMB_TIP	THUMB_IP	THUMB_MCP	THUMB_CMC	INDEX_TIP	INDEX_DIP	INDEX_PIP	INDEX_MCP	MIDDLE_TIP	MIDDLE_DIP	MIDDLE_PIP	MIDDLE_MCP	RING_TIP	RING_DIP	RING_PIP	RING_MCP	PINKY_TIP	PINKY_DIP	PINKY_PIP	PINKY_MCP	WRIST
X1	Y1	Z1	X2	Y2	Z2	X3	Y3	Z3	X4	Y4	Z4	X5	Y5	Z5	X6	Y6	Z6	X7	Y7	Z7	X8	Y8	Z8	X9	Y9	Z9	X10	Y10	Z10	X11	Y11	Z11	X12	Y12	Z12	X13	Y13	Z13	X14	Y14	Z14	X15	Y15	Z15	X16	Y16	Z16	X17	Y17	Z17	X18	Y18	Z18	X19	Y19	Z19	X20	Y20	Z20	X21	Y21	Z21
0	0.0	-0.18079600524902345	-0.13720199584960938	0.93135498046875	-0.17335499572753907	-0.11194999694824219	0.9400079956054688	-0.17178799438476564	-0.09344609832763671	0.9605170288085938	-0.16934800720214843	-0.0568296012878418	0.9836480102539062	-0.16462600708007813	-0.062192100524902344	0.9579219970703124	-0.14531700134277345	-0.053379199981689454	0.95239599609375	-0.14021400451660157	-0.04817229843139648	0.9275	-0.18062399291992187	-0.05911989974975586	0.9242659912109376	-0.1457879943847656	-0.03946829986572266	0.95827099609375	-0.14920899963378906	-0.03467800140380859	0.9622009887695312	-0.1445989990234375	-0.0280093994140625	0.9345609741210937	-0.18358200073242187	-0.035865798950195316	0.9258720092773437	-0.1719980010986328	-0.029795700073242188	0.9669949951171875	-0.15567900085449218	-0.019606199264526367	0.9676439819335938	-0.1517100067138672	-0.009276619911193848	0.9449249877929687	-0.1902550048828125	-0.015734100341796876	0.935780029296875	0.0	0.0	0.0	-0.15986700439453125	-0.005870989799499512	0.9717340087890625	-0.1623280029296875	0.004660999774932862	0.9566740112304688	-0.19512100219726564	-7.0062398910522e-05	0.9471790161132813	-0.19269099426269531	-0.03586159896850586	1.0113699951171875
1	0.03333333333333333	-0.17987100219726562	-0.13645899963378907	0.9307130126953125	-0.17078599548339843	-0.11063899993896484	0.9397890014648438	-0.17088400268554688	-0.08882679748535156	0.9624420166015625	-0.17040899658203126	-0.05650469970703125	0.9851079711914063	-0.1643560028076172	-0.0593931999206543	0.9584010009765624	-0.14611099243164063	-0.05271179962158203	0.9521669921875	-0.14118499755859376	-0.04824819946289063	0.9293159790039063	-0.1802239990234375	-0.059995399475097654	0.9278150024414062	-0.1605659942626953	-0.04189500045776367	0.9656489868164062	-0.14951499938964843	-0.03518270111083984	0.960822021484375	-0.14433299255371093	-0.027990800857543945	0.9350709838867187	-0.1845540008544922	-0.03673040008544922	0.9275170288085938	-0.1713800048828125	-0.02941069984436035	0.9730969848632812	-0.15617300415039062	-0.020144500732421876	0.9677789916992188	-0.15235000610351562	-0.009836230278015137	0.9446820068359375	-0.19027999877929688	-0.017048799514770507	0.9366900024414062	-0.17593099975585938	-0.01657670021057129	0.974719970703125	-0.16141000366210936	-0.006717020034790039	0.9710070190429687	-0.16182200622558593	0.003281150102615356	0.9555499877929687	-0.1937220001220703	-0.000327174007892608	0.947905029296875	-0.19049600219726562	-0.035245498657226565	1.00875
2	0.06666666666666667	-0.17965400695800782	-0.1364250030517578	0.930677001953125	-0.17032899475097657	-0.1107030029296875	0.9398619995117188	-0.17077099609375	-0.08876679992675782	0.96239697265625	-0.17025900268554686	-0.056410999298095704	0.9851259765625	-0.16426699829101563	-0.05927669906616211	0.95839599609375	-0.14680999755859375	-0.05242470169067383	0.95197802734375	-0.14118899536132812	-0.04816019821166992	0.92935400390625	-0.17972900390625	-0.059892299652099606	0.9275640258789063	-0.16007099914550782	-0.04151219940185547	0.9655089721679687	-0.14943600463867188	-0.03515549850463867	0.9605230102539063	-0.14426499938964843	-0.027936500549316408	0.9350670166015626	-0.18449299621582033	-0.03675699996948242	0.927416015625	-0.17085400390625	-0.029390100479125977	0.9730009765625	-0.15589100646972656	-0.019973699569702148	0.967552001953125	-0.15233599853515625	-0.0097475004196167	0.9447780151367188	-0.19020899963378907	-0.01685860061645508	0.93660400390625	-0.17465899658203124	-0.016746500015258788	0.9751079711914062	-0.1612449951171875	-0.0067919201850891115	0.9708980102539062	-0.16235400390625	0.003629849910736084	0.9556640014648438	-0.1936320037841797	-0.00024080100655555703	0.9479320068359375	-0.1899320068359375	-0.03529510116577148	1.008489990234375
3	0.1	-0.17969900512695314	-0.13637300109863282	0.9306829833984375	-0.17079800415039062	-0.11046600341796875	0.9395869750976562	-0.1712480010986328	-0.08884220123291016	0.9623820190429687	-0.17144599914550782	-0.056311901092529294	0.9852760009765625	-0.16373199462890625	-0.05965409851074219	0.9586069946289062	-0.14605799865722657	-0.05224330139160156	0.9521160278320312	-0.14119900512695313	-0.04823720169067383	0.929260009765625	-0.1795050048828125	-0.059822898864746094	0.92722802734375	-0.16040800476074218	-0.041704700469970706	0.9655709838867188	-0.14958500671386718	-0.03509600067138672	0.9606270141601563	-0.14423199462890626	-0.027896799087524415	0.9351220092773438	-0.18452699279785156	-0.03665179824829102	0.92735302734375	-0.16981300354003906	-0.02931500053405762	0.9731799926757813	-0.15636199951171875	-0.02014189910888672	0.9676019897460938	-0.1524199981689453	-0.009651510238647461	0.944593994140625	-0.19046499633789063	-0.016879400253295897	0.9366920166015625	-0.1739290008544922	-0.016910900115966798	0.9759569702148437	-0.16128700256347656	-0.006814919948577881	0.9709080200195312	-0.16238900756835936	0.003604619979858398	0.9554619750976563	-0.19354899597167968	-0.000228644996881484	0.9478709716796875	-0.19049899291992187	-0.03513650131225586	1.0089400024414064
4	0.13333333333333333	-0.17981399536132814	-0.13630400085449218	0.9305969848632812	-0.17105400085449218	-0.11035099792480468	0.9396790161132812	-0.17133599853515624	-0.08879239654541016	0.9623690185546875	-0.17088499450683595	-0.056330799102783206	0.9851890258789062	-0.16488999938964843	-0.059095699310302736	0.9582340087890625	-0.14629600524902345	-0.05227980041503906	0.9520239868164062	-0.14132699584960937	-0.04823369979858398	0.9290469970703125	-0.17951899719238282	-0.0598213005065918	0.9272310180664063	-0.16029200744628908	-0.04166030120849609	0.9656060180664062	-0.14929200744628907	-0.035137001037597655	0.9606630249023438	-0.14466600036621094	-0.027794099807739257	0.934969970703125	-0.18515699768066407	-0.0365359992980957	0.9274509887695312	-0.17078300476074218	-0.029310400009155274	0.9729149780273437	-0.15667300415039062	-0.019981000900268556	0.9674959716796875	-0.15254299926757814	-0.009651679992675782	0.9446480102539062	-0.19043400573730468	-0.01684670066833496	0.9366279907226562	-0.17494999694824218	-0.016627300262451173	0.9755029907226562	-0.16232400512695314	-0.006556300163269043	0.971052978515625	-0.16263600158691408	0.003629839897155761	0.9554739990234375	-0.19376100158691406	-0.000224956005811691	0.9478699951171875	-0.1905800018310547	-0.03518569946289062	1.00875
5	0.16666666666666666	-0.1798470001220703	-0.13627200317382812	0.930572021484375	-0.17069200134277343	-0.11049600219726563	0.9396160278320312	-0.1714149932861328	-0.08877790069580078	0.962291015625	-0.17081399536132813	-0.056310398101806644	0.98510400390625	-0.16452200317382812	-0.05932519912719727	0.9582080078125	-0.14628700256347657	-0.05227019882202148	0.9519559936523437	-0.14111099243164063	-0.04833449935913086	0.92893798828125	-0.18038999938964845	-0.05989789962768555	0.9278289794921875	-0.161125	-0.041618400573730466	0.9654530029296875	-0.14954299926757814	-0.03502119827270508	0.9603049926757813	-0.1445489959716797	-0.027827499389648437	0.9348150024414063	-0.1847969970703125	-0.03656790161132813	0.9273759765625	-0.16916900634765625	-0.029292699813842773	0.9733579711914062	-0.15638800048828125	-0.02004599952697754	0.9675650024414062	-0.15262899780273437	-0.009568490028381348	0.9444509887695313	-0.19044000244140624	-0.01674139976501465	0.936573974609375	-0.17470799255371094	-0.01679319953918457	0.9754600219726562	-0.16207200622558593	-0.006760680198669434	0.970989013671875	-0.16286099243164062	0.003690500020980835	0.9553410034179688	-0.19388800048828125	-9.6655897796154e-05	0.9479019775390625	-0.19022000122070312	-0.035131000518798826	1.008760009765625
6	0.2	-0.17979400634765624	-0.1362429962158203	0.9305800170898437	-0.17055400085449218	-0.11038400268554688	0.9397529907226563	-0.17127200317382812	-0.08874839782714844	0.96235400390625	-0.17141700744628907	-0.05629359817504883	0.9851890258789062	-0.1637449951171875	-0.05956489944458008	0.958625	-0.1465449981689453	-0.05237300109863281	0.951843994140625	-0.14140899658203124	-0.04789770126342773	0.9290070190429688	-0.18015699768066407	-0.05979309844970703	0.9276079711914063	-0.1605010070800781	-0.04161140060424805	0.9655460205078125	-0.14936700439453124	-0.035104198455810545	0.9604450073242188	-0.1447729949951172	-0.027798599243164062	0.9354310302734375	-0.18488699340820314	-0.036486301422119144	0.9275499877929687	-0.1703999938964844	-0.029209699630737305	0.97289599609375	-0.1568520050048828	-0.019941299438476563	0.967343994140625	-0.1525959930419922	-0.009544489860534668	0.9445289916992188	-0.19053599548339845	-0.016775699615478517	0.9366510009765625	-0.17266400146484376	-0.017079999923706055	0.9764130249023437	-0.16149099731445313	-0.006691189765930175	0.970927978515625	-0.16213900756835936	0.003596390008926391	0.9554110107421875	-0.19380999755859374	-6.9828398525714e-05	0.9480469970703125	-0.19038999938964843	-0.03516080093383789	1.008530029296875
7	0.23333333333333334	-0.17963699340820313	-0.13620199584960938	0.9306510009765625	-0.17038900756835937	-0.11037400054931641	0.9398779907226562	-0.17094700622558595	-0.08866519927978515	0.9623790283203125	-0.1704320068359375	-0.05630799865722656	0.9851110229492187	-0.1641820068359375	-0.05924570083618164	0.9584619750976563	-0.14616000366210938	-0.052177799224853515	0.9520650024414062	-0.14088299560546874	-0.04839739990234375	0.9293049926757813	-0.17998599243164062	-0.05978570175170898	0.9275980224609375	-0.160447998046875	-0.04161909866333008	0.9656430053710937	-0.1494429931640625	-0.034960399627685546	0.960426025390625	-0.14445199584960938	-0.027740400314331056	0.9351099853515625	-0.1847279968261719	-0.036535900115966795	0.9275139770507812	-0.16908000183105468	-0.02927000045776367	0.97364599609375	-0.15660000610351563	-0.01992259979248047	0.9677730102539063	-0.15256199645996094	-0.009502320289611817	0.9446329956054688	-0.19026600646972655	-0.016711000442504884	0.9365260009765625	-0.17272900390625	-0.01703459930419922	0.97656298828125	-0.16158299255371095	-0.00664277982711792	0.9710189819335937	-0.16278599548339845	0.003663609981536865	0.955656005859375	-0.1936580047607422	-6.520789861679e-05	0.9480560302734375	-0.18985699462890626	-0.03518840026855469	1.008780029296875
